<svg width="32" height="32" viewBox="0 0 32 32" fill="none" xmlns="http://www.w3.org/2000/svg">
<path d="M6.72313 20.2216C6.72313 22.0717 5.21173 23.5831 3.36157 23.5831C1.5114 23.5831 0 22.0717 0 20.2216C0 18.3714 1.5114 16.86 3.36157 16.86H6.72313V20.2216Z" fill="#E01E5A"/>
<path d="M8.41699 20.2216C8.41699 18.3714 9.92839 16.86 11.7786 16.86C13.6287 16.86 15.1401 18.3714 15.1401 20.2216V28.6385C15.1401 30.4887 13.6287 32.0001 11.7786 32.0001C9.92839 32.0001 8.41699 30.4887 8.41699 28.6385V20.2216Z" fill="#E01E5A"/>
<path d="M11.7786 6.72314C9.92839 6.72314 8.41699 5.21174 8.41699 3.36157C8.41699 1.5114 9.92839 0 11.7786 0C13.6287 0 15.1401 1.5114 15.1401 3.36157V6.72314H11.7786Z" fill="#36C5F0"/>
<path d="M11.7785 8.41687C13.6287 8.41687 15.1401 9.92827 15.1401 11.7784C15.1401 13.6286 13.6287 15.14 11.7785 15.14H3.36157C1.5114 15.14 0 13.6286 0 11.7784C0 9.92827 1.5114 8.41687 3.36157 8.41687H11.7785Z" fill="#36C5F0"/>
<path d="M25.2771 11.7784C25.2771 9.92827 26.7885 8.41687 28.6387 8.41687C30.4888 8.41687 32.0002 9.92827 32.0002 11.7784C32.0002 13.6286 30.4888 15.14 28.6387 15.14H25.2771V11.7784Z" fill="#2EB67D"/>
<path d="M23.5832 11.7785C23.5832 13.6287 22.0718 15.1401 20.2217 15.1401C18.3715 15.1401 16.8601 13.6287 16.8601 11.7785V3.36157C16.8601 1.5114 18.3715 0 20.2217 0C22.0718 0 23.5832 1.5114 23.5832 3.36157V11.7785Z" fill="#2EB67D"/>
<path d="M20.2217 25.277C22.0718 25.277 23.5832 26.7884 23.5832 28.6385C23.5832 30.4887 22.0718 32.0001 20.2217 32.0001C18.3715 32.0001 16.8601 30.4887 16.8601 28.6385V25.277H20.2217Z" fill="#ECB22E"/>
<path d="M20.2217 23.5831C18.3715 23.5831 16.8601 22.0717 16.8601 20.2216C16.8601 18.3714 18.3715 16.86 20.2217 16.86H28.6386C30.4888 16.86 32.0002 18.3714 32.0002 20.2216C32.0002 22.0717 30.4888 23.5831 28.6386 23.5831H20.2217Z" fill="#ECB22E"/>
</svg>
